<svg enable-background="new 0 0 512 512" id="Layer_1" version="1.1" viewBox="0 0 512 512" xml:space="preserve" xmlns="http://www.w3.org/2000/svg" xmlns:xlink="http://www.w3.org/1999/xlink"><g><g><linearGradient gradientUnits="userSpaceOnUse" id="SVGID_1_" x1="-0.0000027" x2="512" y1="256" y2="256"><stop offset="0" style="stop-color:#00AEEE"/><stop offset="1" style="stop-color:#0095DA"/></linearGradient><circle cx="256" cy="256" fill="url(#SVGID_1_)" r="256"/><linearGradient gradientUnits="userSpaceOnUse" id="SVGID_2_" x1="42.6666641" x2="469.3333435" y1="256.0005188" y2="256.0005188"><stop offset="0" style="stop-color:#0095DA"/><stop offset="1" style="stop-color:#00AEEE"/></linearGradient><path d="M256,469.3338623c-117.6315002,0-213.3333435-95.7018738-213.3333435-213.3333435    S138.3684998,42.6671982,256,42.6671982c117.6357117,0,213.3333435,95.7018661,213.3333435,213.333313    S373.6357117,469.3338623,256,469.3338623z" fill="url(#SVGID_2_)"/></g><g><path d="M297.9013062,256.3546753c-11.177063,0-20.2687988,9.0917358-20.2687988,20.2639771    c0,11.1712036,9.0917358,20.2634888,20.2687988,20.2634888c11.1717224,0,20.2634583-9.0922852,20.2634583-20.2634888    C318.1647644,265.4464111,309.0730286,256.3546753,297.9013062,256.3546753z" opacity="0.3"/><path d="M368.9999695,193.4192047h-14.4693298l-8.9456177-25.2384033h-72.1295776l-8.9450684,25.2384033    h-58.4272003v-8.4672089c0-8.0538635-6.5296021-14.5834656-14.5834656-14.5834656    c-8.0538788,0-14.5834656,6.5296021-14.5834656,14.5834656v8.4672089h-17.916275c-8.2842712,0-14.9999695,6.7146606-14.9999695,15    v136.4000092c0,8.2831726,6.7156982,15,14.9999695,15h210c8.2842712,0,15.0000305-6.7168274,15.0000305-15V208.4192047    C384,200.1338654,377.2842407,193.4192047,368.9999695,193.4192047z M220.2511749,229.1205292H171.501297v-10h48.7498779    V229.1205292z M297.8991699,321.8842773c-25,0-45.2661285-20.265625-45.2661285-45.265625    s20.2661285-45.2666473,45.2661285-45.2666473c24.9994507,0,45.2655945,20.2666626,45.2655945,45.2666473    S322.8986206,321.8842773,297.8991699,321.8842773z" opacity="0.3"/></g><g><path d="M289.9013062,248.35466c-11.177063,0-20.2687988,9.0917511-20.2687988,20.2639923    c0,11.1712036,9.0917358,20.2634888,20.2687988,20.2634888c11.1717224,0,20.2634583-9.0922852,20.2634583-20.2634888    C310.1647644,257.4464111,301.0730286,248.35466,289.9013062,248.35466z" fill="#FFFFFF"/><path d="M360.9999695,185.4192047h-14.4693298l-8.9456177-25.2384033h-72.1295776l-8.9450684,25.2384033    h-58.4272003v-8.4672089c0-8.0538635-6.5296021-14.5834656-14.5834656-14.5834656    c-8.0538788,0-14.5834656,6.5296021-14.5834656,14.5834656v8.4672089h-17.916275c-8.2842712,0-14.9999695,6.7146606-14.9999695,15    v136.4000092c0,8.2831726,6.7156982,15,14.9999695,15h210c8.2842712,0,15.0000305-6.7168274,15.0000305-15V200.4192047    C376,192.1338654,369.2842407,185.4192047,360.9999695,185.4192047z M212.2511749,221.1205292H163.501297v-10h48.7498779    V221.1205292z M289.8991699,313.8842773c-25,0-45.2661285-20.265625-45.2661285-45.265625    s20.2661285-45.2666473,45.2661285-45.2666473c24.9994507,0,45.2655945,20.2666626,45.2655945,45.2666473    S314.8986206,313.8842773,289.8991699,313.8842773z" fill="#FFFFFF"/></g></g></svg>